<svg xmlns="http://www.w3.org/2000/svg" version="1.1" xmlns:xlink="http://www.w3.org/1999/xlink" xmlns:svgjs="http://svgjs.dev/svgjs" width="1500" height="1500" viewBox="0 0 1500 1500"><rect width="1500" height="1500" fill="#000000"></rect><g transform="matrix(0.6666666666666666,0,0,0.6666666666666666,249.39393939393938,562.5672704214)"><svg viewBox="0 0 396 149" data-background-color="#010c80" preserveAspectRatio="xMidYMid meet" height="564" width="1500" xmlns="http://www.w3.org/2000/svg" xmlns:xlink="http://www.w3.org/1999/xlink"><g id="tight-bounds" transform="matrix(1,0,0,1,0.2400000000000091,-0.22479599145906093)"><svg viewBox="0 0 395.52 149.44959198291812" height="149.44959198291812" width="395.52"><g><svg viewBox="0 0 395.52 149.44959198291812" height="149.44959198291812" width="395.52"><g transform="matrix(1,0,0,1,0,92.36584346571766)"><svg viewBox="0 0 395.52 57.08374851720047" height="57.08374851720047" width="395.52"><g id="textblocktransform"><svg viewBox="0 0 395.52 57.08374851720047" height="57.08374851720047" width="395.52" id="textblock"><g><svg viewBox="0 0 395.52 57.08374851720047" height="57.08374851720047" width="395.52"><g transform="matrix(1,0,0,1,0,0)"><svg width="395.52" viewBox="0.1 -36 252.88 36.5" height="57.08374851720047" data-palette-color="#f8fafc"><path d="M26.1 0L23.6-6.75 9.95-6.75 7.55 0 0.1 0 12.55-34.3 21.75-34.3 34.2 0 26.1 0ZM16.7-26.05L12.05-12.6 21.55-12.6Q19.65-18.25 16.95-26.05L16.95-26.05 16.7-26.05ZM61.3-9.55Q61.3-6.2 59.7-3.93 58.1-1.65 55.47-0.58 52.85 0.5 49.75 0.5L49.75 0.5 48.95 0.5Q45.4 0.5 42.55-1 39.7-2.5 38.07-5.33 36.45-8.15 36.45-12.05L36.45-12.05 36.45-13.5Q36.45-17.35 38.1-20.2 39.75-23.05 42.57-24.55 45.4-26.05 48.95-26.05L48.95-26.05 49.75-26.05Q52.85-26.05 55.5-24.78 58.15-23.5 59.75-21.08 61.35-18.65 61.35-15.35L61.35-15.35 61.35-11.55 43.85-11.55 43.85-10.35Q43.85-7.85 45.32-6.18 46.8-4.5 49.35-4.5L49.35-4.5Q51.65-4.5 52.97-5.78 54.3-7.05 54.3-9.55L54.3-9.55 61.3-9.55ZM49-21.05Q46.8-21.05 45.42-19.5 44.05-17.95 43.85-15.55L43.85-15.55 53.95-15.55Q53.95-18.1 52.77-19.58 51.6-21.05 49-21.05L49-21.05ZM81.15-15.65L81.15-16.8Q81.15-18.35 80.3-19.48 79.45-20.6 77.6-20.6L77.6-20.6Q75.85-20.6 74.92-19.23 74-17.85 74-15.8L74-15.8 74 0 66.8 0 66.8-25.55 72.2-25.55 73.1-21.8Q73.3-22.35 74.12-23.35 74.95-24.35 76.52-25.2 78.1-26.05 80.25-26.05L80.25-26.05Q83.7-26.05 85.57-23.9 87.45-21.75 87.45-18.2L87.45-18.2Q87.45-17.45 87.37-16.7 87.3-15.95 87.25-15.65L87.25-15.65 81.15-15.65ZM115.89-12.05Q115.89-8.2 114.27-5.35 112.64-2.5 109.79-1 106.94 0.5 103.39 0.5L103.39 0.5 102.59 0.5Q99.04 0.5 96.19-1 93.34-2.5 91.72-5.35 90.09-8.2 90.09-12.05L90.09-12.05 90.09-13.5Q90.09-17.35 91.72-20.2 93.34-23.05 96.19-24.55 99.04-26.05 102.59-26.05L102.59-26.05 103.39-26.05Q106.94-26.05 109.79-24.55 112.64-23.05 114.27-20.2 115.89-17.35 115.89-13.5L115.89-13.5 115.89-12.05ZM108.49-14.8Q108.49-17.85 106.97-19.45 105.44-21.05 102.99-21.05L102.99-21.05Q100.54-21.05 99.02-19.45 97.49-17.85 97.49-14.8L97.49-14.8 97.49-10.75Q97.49-7.7 99.02-6.1 100.54-4.5 102.99-4.5L102.99-4.5Q105.44-4.5 106.97-6.1 108.49-7.7 108.49-10.75L108.49-10.75 108.49-14.8ZM128.54-13.6Q128.54-9.8 130.62-7.73 132.69-5.65 135.84-5.65L135.84-5.65Q138.94-5.65 140.69-7.5 142.44-9.35 142.44-13.05L142.44-13.05 134.69-13.05 134.69-18.65 149.69-18.65 149.69-6.8Q149.69-4.3 149.82-2.4 149.94-0.5 149.99 0L149.99 0 145.74 0Q145.09-1.8 144.54-3.85L144.54-3.85Q142.94-1.8 140.37-0.65 137.79 0.5 134.89 0.5L134.89 0.5 134.64 0.5Q130.54 0.5 127.32-1.35 124.09-3.2 122.27-6.65 120.44-10.1 120.44-14.7L120.44-14.7 120.44-19.6Q120.44-24.2 122.34-27.65 124.24-31.1 127.67-32.95 131.09-34.8 135.44-34.8L135.44-34.8 136.14-34.8Q139.89-34.8 142.99-33.23 146.09-31.65 147.89-28.78 149.69-25.9 149.69-22.1L149.69-22.1 142.39-22.1Q142.39-25.35 140.49-27 138.59-28.65 135.69-28.65L135.69-28.65Q132.54-28.65 130.54-26.58 128.54-24.5 128.54-20.7L128.54-20.7 128.54-13.6ZM179.99-9.55Q179.99-6.2 178.39-3.93 176.79-1.65 174.16-0.58 171.54 0.5 168.44 0.5L168.44 0.5 167.64 0.5Q164.09 0.5 161.24-1 158.39-2.5 156.76-5.33 155.14-8.15 155.14-12.05L155.14-12.05 155.14-13.5Q155.14-17.35 156.79-20.2 158.44-23.05 161.26-24.55 164.09-26.05 167.64-26.05L167.64-26.05 168.44-26.05Q171.54-26.05 174.19-24.78 176.84-23.5 178.44-21.08 180.04-18.65 180.04-15.35L180.04-15.35 180.04-11.55 162.54-11.55 162.54-10.35Q162.54-7.85 164.01-6.18 165.49-4.5 168.04-4.5L168.04-4.5Q170.34-4.5 171.66-5.78 172.99-7.05 172.99-9.55L172.99-9.55 179.99-9.55ZM167.69-21.05Q165.49-21.05 164.11-19.5 162.74-17.95 162.54-15.55L162.54-15.55 172.64-15.55Q172.64-18.1 171.46-19.58 170.29-21.05 167.69-21.05L167.69-21.05ZM190.94-25.55L191.74-21.8Q194.88-26.05 199.88-26.05L199.88-26.05Q203.78-26.05 206.31-23.95 208.84-21.85 208.84-17.85L208.84-17.85 208.84 0 201.53 0 201.53-16.25Q201.53-18.2 200.41-19.48 199.28-20.75 197.53-20.75L197.53-20.75Q195.59-20.75 194.19-19.28 192.78-17.8 192.78-15.7L192.78-15.7 192.78 0 185.49 0 185.49-25.55 190.94-25.55ZM215.28-30.25L215.28-36 222.68-36 222.68-30.25 215.28-30.25ZM222.63 0L215.33 0 215.33-25.55 222.63-25.55 222.63 0ZM252.93-9.55Q252.93-6.2 251.33-3.93 249.73-1.65 247.11-0.58 244.48 0.5 241.38 0.5L241.38 0.5 240.58 0.5Q237.03 0.5 234.18-1 231.33-2.5 229.71-5.33 228.08-8.15 228.08-12.05L228.08-12.05 228.08-13.5Q228.08-17.35 229.73-20.2 231.38-23.05 234.21-24.55 237.03-26.05 240.58-26.05L240.58-26.05 241.38-26.05Q244.48-26.05 247.13-24.78 249.78-23.5 251.38-21.08 252.98-18.65 252.98-15.35L252.98-15.35 252.98-11.55 235.48-11.55 235.48-10.35Q235.48-7.85 236.96-6.18 238.43-4.5 240.98-4.5L240.98-4.5Q243.28-4.5 244.61-5.78 245.93-7.05 245.93-9.55L245.93-9.55 252.93-9.55ZM240.63-21.05Q238.43-21.05 237.06-19.5 235.68-17.95 235.48-15.55L235.48-15.55 245.58-15.55Q245.58-18.1 244.41-19.58 243.23-21.05 240.63-21.05L240.63-21.05Z" opacity="1" transform="matrix(1,0,0,1,0,0)" fill="#ffffff" class="wordmark-text-0" data-fill-palette-color="primary" id="text-0"></path></svg></g></svg></g></svg></g></svg></g><g transform="matrix(1,0,0,1,101.52210959909031,0)"><svg viewBox="0 0 192.47578080181935 78.88974045077104" height="78.88974045077104" width="192.47578080181935"><g><svg xmlns="http://www.w3.org/2000/svg" xmlns:xlink="http://www.w3.org/1999/xlink" version="1.1" x="8" y="0" viewBox="6.243419656072623 30.07698658644751 87.56307412234774 39.14320797560922" enable-background="new 0 0 100 100" xml:space="preserve" height="78.88974045077104" width="176.47578080181935" class="icon-icon-0" data-fill-palette-color="accent" id="icon-0"><path d="M93.427 30.792c0.075-0.369-0.11-0.769-0.582-0.709-11.215 1.425-22.129 3.958-33.162 6.345-5.997 1.297-12.012 2.504-18.054 3.576-5.461 0.968-11.025 2.859-16.588 3.075-0.132-0.179-0.34-0.295-0.579-0.258-0.141 0.002-0.269 0.055-0.368 0.157-0.097 0.056-0.193 0.113-0.291 0.169-0.15 0.03-0.269 0.099-0.348 0.203-5.145 3.024-10.213 6.673-16.142 7.865-0.349 0.069-0.472 0.339-0.446 0.609-0.668-0.011-0.907 1.041-0.174 1.238 5.502 1.482 11.207 0.143 16.532-1.474-0.075 2.271-0.11 4.544-0.226 6.817-0.479 0.263-0.376 1.17 0.315 1.197 6.321 0.249 12.814-0.502 18.681-2.961 0.21 3.733 0.633 7.468 0.549 11.228-0.103 0.055-0.203 0.115-0.306 0.17-0.726 0.386-0.082 1.485 0.643 1.101 9.25-4.915 16.616-12.685 25.175-18.638 8.021-5.578 16.05-11.14 23.593-17.353 0.703-0.378 1.37-0.813 1.959-1.359C93.98 31.445 93.777 30.973 93.427 30.792zM54.079 38.91c12.522-2.558 24.859-5.673 37.54-7.38-0.245 0.204-0.491 0.405-0.738 0.608-1.347 0.707-2.859 1.173-4.272 1.705-0.122-0.064-0.272-0.082-0.45-0.012-13.825 5.508-27.837 10.63-42.43 13.675-0.198-0.306-0.643-0.48-0.998-0.163-5.24 4.694-11.848 7.68-18.414 10.073 0.176-4.361 0.102-8.731 0.746-13.055 3.91-0.167 7.63-1.223 11.444-2.146C42.274 40.821 48.258 40.099 54.079 38.91zM23.146 50.283c-4.633 1.417-9.573 2.691-14.408 1.91 5.446-1.378 10.201-4.687 15.003-7.534-0.25 1.865-0.384 3.736-0.464 5.612C23.233 50.275 23.193 50.269 23.146 50.283zM25.391 58.371c5.907-2.191 11.759-4.891 16.684-8.838-0.194 1.93-0.224 3.856-0.149 5.782C36.758 57.595 31.026 58.397 25.391 58.371zM65.838 50.499c-7.568 5.264-14.042 12.023-22.023 16.664 0.031-6.115-1.215-12.188-0.397-18.286 14.559-2.972 28.531-8.042 42.313-13.515 0.122 0.066 0.276 0.083 0.456 0.008 0.429-0.179 0.872-0.346 1.318-0.51C80.503 40.366 73.154 45.41 65.838 50.499z" fill="#ffffff" data-fill-palette-color="accent"></path></svg></g></svg></g><g><rect width="101.52210959909031" height="5.147871351709608" y="72.74186909906143" x="293.9978904009097" fill="#ffffff" data-fill-palette-color="accent"></rect><rect width="101.52210959909031" height="5.147871351709608" y="72.74186909906143" x="0" fill="#ffffff" data-fill-palette-color="accent"></rect><rect width="101.52210959909031" height="5.147871351709608" y="62.44612639564222" x="293.9978904009097" fill="#ffffff" data-fill-palette-color="accent"></rect><rect width="101.52210959909031" height="5.147871351709608" y="62.44612639564222" x="0" fill="#ffffff" data-fill-palette-color="accent"></rect></g></svg></g><defs></defs></svg><rect width="395.52" height="149.44959198291812" fill="none" stroke="none" visibility="hidden"></rect></g></svg></g></svg>